<?xml version="1.0" encoding="UTF-8" standalone="no"?>
<!-- Generator: Adobe Illustrator 18.0.0, SVG Export Plug-In . SVG Version: 6.00 Build 0)  -->

<svg
   xmlns:dc="http://purl.org/dc/elements/1.1/"
   xmlns:cc="http://creativecommons.org/ns#"
   xmlns:rdf="http://www.w3.org/1999/02/22-rdf-syntax-ns#"
   xmlns:svg="http://www.w3.org/2000/svg"
   xmlns="http://www.w3.org/2000/svg"
   xmlns:xlink="http://www.w3.org/1999/xlink"
   xmlns:sodipodi="http://sodipodi.sourceforge.net/DTD/sodipodi-0.dtd"
   xmlns:inkscape="http://www.inkscape.org/namespaces/inkscape"
   version="1.1"
   id="Capa_1"
   x="0px"
   y="0px"
   viewBox="0 0 188.148 188.148"
   style="enable-background:new 0 0 188.148 188.148;"
   xml:space="preserve"
   sodipodi:docname="man(1).svg"
   inkscape:version="0.92.3 (d244b95, 2018-08-02)"><metadata
   id="metadata95"><rdf:RDF><cc:Work
       rdf:about=""><dc:format>image/svg+xml</dc:format><dc:type
         rdf:resource="http://purl.org/dc/dcmitype/StillImage" /></cc:Work></rdf:RDF></metadata><defs
   id="defs93" /><sodipodi:namedview
   pagecolor="#ffffff"
   bordercolor="#666666"
   borderopacity="1"
   objecttolerance="10"
   gridtolerance="10"
   guidetolerance="10"
   inkscape:pageopacity="0"
   inkscape:pageshadow="2"
   inkscape:window-width="1366"
   inkscape:window-height="676"
   id="namedview91"
   showgrid="false"
   inkscape:zoom="1.2543317"
   inkscape:cx="94.073997"
   inkscape:cy="94.073997"
   inkscape:window-x="0"
   inkscape:window-y="27"
   inkscape:window-maximized="1"
   inkscape:current-layer="Capa_1" />
<g
   id="g58"
   transform="translate(0.79723727,0.79723727)">
	<g
   id="g56">
		<defs
   id="defs3">
			<circle
   id="SVGID_1_"
   cx="94.073997"
   cy="94.073997"
   r="94.073997" />
		</defs>
		<use
   xlink:href="#SVGID_1_"
   style="overflow:visible;fill:#eb6d4a"
   id="use5"
   x="0"
   y="0"
   width="100%"
   height="100%" />
		<clipPath
   id="SVGID_2_">
			<use
   xlink:href="#SVGID_1_"
   style="overflow:visible"
   id="use7"
   x="0"
   y="0"
   width="100%"
   height="100%" />
		</clipPath>
		<path
   style="fill:#ecc19c"
   d="M 135.938,52.784 V 84.05 c 0,0.453 -0.011,0.905 -0.021,1.357 -0.02,0.936 -0.072,1.871 -0.154,2.796 -0.02,0.319 -0.052,0.637 -0.093,0.956 -0.134,1.326 -0.318,2.632 -0.555,3.928 -0.083,0.432 -0.165,0.853 -0.258,1.275 -0.01,0.092 -0.03,0.175 -0.051,0.257 -0.083,0.432 -0.186,0.854 -0.288,1.275 -0.041,0.226 -0.103,0.452 -0.154,0.679 -0.052,0.195 -0.103,0.391 -0.164,0.586 -0.217,0.843 -0.463,1.666 -0.721,2.488 -0.123,0.391 -0.246,0.771 -0.38,1.162 -0.011,0.041 -0.031,0.082 -0.041,0.123 -0.124,0.349 -0.247,0.699 -0.37,1.048 -0.041,0.103 -0.082,0.205 -0.124,0.319 -0.123,0.329 -0.246,0.658 -0.38,0.987 -0.154,0.401 -0.318,0.792 -0.483,1.183 -0.144,0.35 -0.298,0.699 -0.452,1.049 -0.02,0.062 -0.052,0.113 -0.072,0.174 -0.175,0.37 -0.339,0.741 -0.514,1.1 -0.175,0.38 -0.36,0.761 -0.556,1.142 -0.37,0.75 -0.771,1.501 -1.172,2.231 -0.185,0.329 -0.37,0.658 -0.556,0.987 -1.583,2.725 -3.341,5.285 -5.253,7.649 -0.258,0.339 -0.524,0.668 -0.802,0.987 -0.381,0.462 -0.772,0.915 -1.162,1.357 -0.35,0.391 -0.699,0.781 -1.059,1.162 -0.987,1.059 -1.995,2.067 -3.023,3.013 -0.205,0.206 -0.422,0.391 -0.638,0.586 -0.349,0.319 -0.698,0.627 -1.059,0.925 -0.277,0.247 -0.565,0.483 -0.854,0.72 -0.74,0.606 -1.48,1.192 -2.23,1.737 -0.309,0.237 -0.628,0.463 -0.946,0.679 -0.514,0.37 -1.038,0.72 -1.563,1.059 -0.288,0.195 -0.586,0.38 -0.885,0.555 -1.049,0.648 -2.107,1.244 -3.156,1.758 -0.257,0.133 -0.514,0.257 -0.771,0.38 -0.258,0.123 -0.524,0.247 -0.802,0.37 -0.34,0.154 -0.679,0.298 -1.018,0.432 -0.134,0.062 -0.268,0.113 -0.401,0.154 -0.4,0.165 -0.812,0.319 -1.213,0.452 -0.504,0.185 -1.018,0.339 -1.521,0.483 -0.35,0.103 -0.709,0.195 -1.059,0.277 -0.021,0.011 -0.041,0.021 -0.072,0.021 -0.35,0.082 -0.699,0.165 -1.049,0.226 -0.093,0.021 -0.184,0.041 -0.277,0.051 -0.288,0.051 -0.576,0.103 -0.864,0.134 -0.411,0.062 -0.822,0.113 -1.233,0.134 -0.143,0.02 -0.277,0.031 -0.422,0.031 -0.328,0.021 -0.657,0.031 -0.977,0.031 h -0.03 c -0.319,0 -0.638,-0.01 -0.956,-0.031 -0.124,0 -0.247,-0.01 -0.371,-0.031 -0.287,-0.01 -0.586,-0.042 -0.894,-0.083 -0.062,0 -0.134,-0.01 -0.195,-0.02 -0.381,-0.051 -0.761,-0.113 -1.152,-0.185 -0.328,-0.051 -0.657,-0.124 -0.997,-0.206 -1.758,-0.401 -3.567,-1.007 -5.397,-1.82 -1.563,-0.689 -3.146,-1.521 -4.719,-2.488 -0.792,-0.483 -1.584,-0.997 -2.365,-1.542 -0.391,-0.278 -0.781,-0.555 -1.172,-0.843 -1.224,-0.895 -2.437,-1.871 -3.63,-2.92 -0.328,-0.298 -0.657,-0.596 -0.986,-0.905 -0.329,-0.298 -0.658,-0.606 -0.977,-0.904 -0.803,-0.771 -1.584,-1.573 -2.345,-2.406 -0.298,-0.318 -0.596,-0.647 -0.895,-0.987 -0.822,-0.925 -1.624,-1.881 -2.385,-2.879 -0.299,-0.36 -0.576,-0.73 -0.854,-1.1 -1.038,-1.377 -2.025,-2.817 -2.951,-4.308 -0.246,-0.401 -0.493,-0.813 -0.729,-1.213 -0.288,-0.483 -0.565,-0.976 -0.843,-1.47 -1.028,-1.851 -1.975,-3.773 -2.797,-5.758 -0.123,-0.288 -0.247,-0.576 -0.35,-0.863 -0.165,-0.37 -0.309,-0.751 -0.442,-1.121 -0.205,-0.545 -0.4,-1.09 -0.586,-1.635 -0.185,-0.545 -0.359,-1.1 -0.534,-1.655 -0.165,-0.535 -0.319,-1.069 -0.463,-1.614 -0.165,-0.576 -0.318,-1.162 -0.452,-1.758 -0.011,-0.062 -0.031,-0.123 -0.041,-0.185 -0.195,-0.822 -0.37,-1.655 -0.524,-2.498 -0.206,-1.111 -0.37,-2.242 -0.494,-3.383 -0.051,-0.36 -0.082,-0.72 -0.113,-1.08 -0.041,-0.38 -0.071,-0.751 -0.092,-1.131 -0.052,-0.689 -0.083,-1.388 -0.104,-2.087 -0.01,-0.453 -0.021,-0.905 -0.021,-1.357 V 52.784 c 0,-23.102 18.723,-41.834 41.825,-41.855 h 0.041 c 3.188,0 6.292,0.359 9.273,1.028 2.725,0.617 5.347,1.501 7.835,2.622 3.393,1.522 6.549,3.475 9.387,5.809 2.385,1.954 4.555,4.154 6.446,6.58 5.586,7.115 8.917,16.07 8.917,25.816 z"
   clip-path="url(#SVGID_2_)"
   id="path10"
   inkscape:connector-curvature="0" />
		<path
   style="fill:#ecc19c"
   d="m 148.613,200.741 v 0.01 H 39.538 v -0.01 c 0,-6.158 1.018,-12.091 2.91,-17.612 0.339,-0.997 0.709,-1.984 1.11,-2.961 v -0.01 c 0.4,-0.977 0.822,-1.933 1.274,-2.879 1.8,-3.794 4.041,-7.341 6.642,-10.59 0.658,-0.812 1.326,-1.604 2.016,-2.365 0.339,-0.391 0.699,-0.771 1.059,-1.151 0.36,-0.37 0.72,-0.74 1.09,-1.11 1.841,-1.84 3.814,-3.526 5.892,-5.079 1.038,-0.771 2.087,-1.491 3.177,-2.19 1.09,-0.689 2.2,-1.347 3.331,-1.964 0.021,-0.02 0.041,-0.02 0.041,-0.02 0.442,-0.236 0.874,-0.493 1.306,-0.761 0.854,-0.514 1.696,-1.069 2.499,-1.665 0.411,-0.288 0.802,-0.586 1.192,-0.905 0.925,-0.74 1.819,-1.532 2.673,-2.365 0.277,-0.277 0.556,-0.555 0.833,-0.843 0.575,-0.597 1.12,-1.224 1.645,-1.861 0.258,-0.308 0.515,-0.627 0.751,-0.946 0.247,-0.318 0.483,-0.647 0.72,-0.977 1.83,-2.55 3.3,-5.356 4.38,-8.349 1.306,-3.64 2.015,-7.557 2.015,-11.649 l 7.948,0.041 8.173,0.041 c 0,4.04 0.689,7.916 1.964,11.515 1.06,3.002 2.529,5.809 4.329,8.359 1.871,2.652 4.102,5.017 6.631,7.042 0.381,0.309 0.761,0.607 1.142,0.884 0.37,0.278 0.75,0.545 1.141,0.802 0.083,0.062 0.154,0.113 0.237,0.165 0.37,0.247 0.74,0.494 1.131,0.72 0.421,0.257 0.854,0.514 1.285,0.751 0.071,0.02 0.134,0.051 0.185,0.093 0.905,0.504 1.8,1.028 2.674,1.573 0.421,0.257 0.843,0.524 1.254,0.823 0.854,0.555 1.687,1.141 2.498,1.758 0,0.011 0.011,0.011 0.011,0.011 h 0.01 c 2.077,1.552 4.041,3.248 5.881,5.079 9.908,9.869 16.025,23.502 16.025,38.595 z"
   clip-path="url(#SVGID_2_)"
   id="path12"
   inkscape:connector-curvature="0" />
		<path
   style="fill:#c7d4e2"
   d="M 148.614,200.743 H 39.539 c 0,-6.159 1.019,-12.091 2.91,-17.612 0.339,-0.998 0.709,-1.984 1.11,-2.961 -0.011,-0.011 0,-0.011 0,-0.011 0.391,-0.977 0.822,-1.933 1.274,-2.878 1.8,-3.794 4.041,-7.341 6.642,-10.59 0.658,-0.813 1.327,-1.604 2.016,-2.365 0.339,-0.391 0.699,-0.771 1.059,-1.151 0.36,-0.37 0.72,-0.74 1.09,-1.11 1.841,-1.84 3.814,-3.527 5.892,-5.079 1.038,-0.771 2.087,-1.491 3.177,-2.19 1.09,-0.699 2.2,-1.357 3.331,-1.974 0.021,-0.02 0.041,-0.01 0.041,-0.01 v -0.01 c 0.442,-0.247 0.874,-0.494 1.306,-0.751 1.285,-0.781 2.52,-1.645 3.671,-2.591 0.01,0.01 0.01,0.01 0.021,0.02 5.325,5.449 12.738,8.831 20.964,8.852 h 0.082 c 8.225,0 15.669,-3.393 21.015,-8.842 l 0.011,-0.01 c 0.729,0.606 1.49,1.172 2.272,1.696 0.082,0.061 0.154,0.113 0.236,0.164 0.37,0.247 0.75,0.483 1.131,0.72 0.422,0.257 0.854,0.504 1.285,0.74 0.072,0.02 0.123,0.061 0.185,0.092 0.905,0.504 1.8,1.028 2.674,1.583 0.421,0.257 0.843,0.524 1.254,0.823 0.854,0.545 1.687,1.141 2.498,1.758 h 0.021 c 2.088,1.563 4.051,3.259 5.881,5.089 9.909,9.872 16.026,23.505 16.026,38.598 z"
   clip-path="url(#SVGID_2_)"
   id="path14"
   inkscape:connector-curvature="0" />
		<path
   style="fill:#543e36"
   d="m 135.938,84.05 c 0,0.453 -0.011,0.905 -0.021,1.357 -0.02,0.936 -0.072,1.871 -0.154,2.796 -0.02,0.319 -0.052,0.637 -0.093,0.956 -0.134,1.326 -0.318,2.632 -0.555,3.928 -0.083,0.432 -0.165,0.853 -0.258,1.275 -0.01,0.092 -0.03,0.175 -0.051,0.257 -0.083,0.432 -0.186,0.854 -0.288,1.275 -0.052,0.247 -0.113,0.483 -0.186,0.72 -0.03,0.185 -0.082,0.37 -0.133,0.545 -0.217,0.843 -0.463,1.666 -0.721,2.488 -0.123,0.391 -0.246,0.771 -0.38,1.162 -0.011,0.041 -0.031,0.082 -0.041,0.123 -0.124,0.349 -0.247,0.699 -0.37,1.048 -0.041,0.103 -0.082,0.205 -0.124,0.319 -0.123,0.329 -0.246,0.658 -0.38,0.987 -0.154,0.401 -0.318,0.792 -0.483,1.183 -0.144,0.35 -0.298,0.699 -0.452,1.049 -0.02,0.062 -0.052,0.113 -0.072,0.174 -0.175,0.37 -0.339,0.741 -0.514,1.1 -0.175,0.38 -0.36,0.761 -0.556,1.142 -0.37,0.75 -0.771,1.501 -1.172,2.231 -0.185,0.329 -0.37,0.658 -0.556,0.987 -1.583,2.725 -3.341,5.285 -5.253,7.649 -0.258,0.339 -0.524,0.668 -0.802,0.987 -0.381,0.462 -0.772,0.915 -1.162,1.357 -0.35,0.391 -0.699,0.781 -1.059,1.162 -0.987,1.059 -1.995,2.067 -3.023,3.013 -0.205,0.206 -0.422,0.391 -0.638,0.586 -0.349,0.319 -0.698,0.627 -1.059,0.925 -0.277,0.247 -0.565,0.483 -0.854,0.72 -0.74,0.606 -1.48,1.192 -2.23,1.737 -0.309,0.237 -0.628,0.463 -0.946,0.679 -0.514,0.37 -1.038,0.72 -1.563,1.059 -0.288,0.195 -0.586,0.38 -0.885,0.555 -1.049,0.648 -2.107,1.244 -3.156,1.758 -0.257,0.133 -0.514,0.257 -0.771,0.38 -0.258,0.123 -0.524,0.247 -0.802,0.37 -0.34,0.154 -0.679,0.298 -1.018,0.432 -0.134,0.062 -0.268,0.113 -0.401,0.154 -0.4,0.165 -0.812,0.319 -1.213,0.452 -0.504,0.185 -1.018,0.339 -1.521,0.483 -0.35,0.103 -0.709,0.195 -1.059,0.277 -0.021,0.011 -0.041,0.021 -0.072,0.021 -0.35,0.082 -0.699,0.165 -1.049,0.226 -0.093,0.021 -0.184,0.041 -0.277,0.051 -0.288,0.051 -0.576,0.103 -0.864,0.134 -0.411,0.062 -0.822,0.113 -1.233,0.134 -0.143,0.02 -0.277,0.031 -0.422,0.031 -0.328,0.021 -0.657,0.031 -0.977,0.031 h -0.03 c -0.319,0 -0.638,-0.01 -0.956,-0.031 -0.124,0 -0.247,-0.01 -0.371,-0.031 -0.287,-0.01 -0.586,-0.042 -0.894,-0.083 -0.062,0 -0.134,-0.01 -0.195,-0.02 -0.381,-0.051 -0.761,-0.113 -1.152,-0.185 -0.328,-0.051 -0.657,-0.124 -0.997,-0.206 -1.758,-0.401 -3.567,-1.007 -5.397,-1.82 -1.563,-0.689 -3.146,-1.521 -4.719,-2.488 -0.792,-0.473 -1.573,-0.987 -2.365,-1.542 -0.391,-0.278 -0.781,-0.555 -1.172,-0.843 -1.224,-0.895 -2.437,-1.871 -3.63,-2.92 -0.328,-0.298 -0.657,-0.596 -0.986,-0.905 -0.329,-0.298 -0.658,-0.606 -0.977,-0.904 -0.803,-0.771 -1.584,-1.573 -2.345,-2.406 -0.298,-0.318 -0.596,-0.647 -0.895,-0.987 -0.822,-0.925 -1.624,-1.881 -2.385,-2.879 -0.299,-0.36 -0.576,-0.73 -0.854,-1.1 -1.038,-1.377 -2.025,-2.817 -2.951,-4.308 -0.246,-0.401 -0.493,-0.813 -0.729,-1.213 -0.288,-0.483 -0.565,-0.976 -0.843,-1.47 -1.028,-1.851 -1.975,-3.773 -2.797,-5.758 -0.123,-0.288 -0.247,-0.576 -0.35,-0.863 -0.165,-0.37 -0.309,-0.751 -0.442,-1.121 -0.205,-0.545 -0.4,-1.09 -0.586,-1.635 -0.185,-0.545 -0.359,-1.1 -0.534,-1.655 -0.165,-0.535 -0.319,-1.069 -0.463,-1.614 -0.165,-0.576 -0.318,-1.162 -0.452,-1.758 -0.011,-0.062 -0.031,-0.123 -0.041,-0.185 -0.195,-0.822 -0.37,-1.655 -0.524,-2.498 -0.206,-1.111 -0.37,-2.242 -0.494,-3.383 -0.051,-0.36 -0.082,-0.72 -0.113,-1.08 -0.041,-0.38 -0.071,-0.751 -0.092,-1.131 -0.052,-0.689 -0.083,-1.388 -0.104,-2.087 -0.01,-0.453 -0.021,-0.905 -0.021,-1.357 l 6.684,13.14 11.484,5.007 13.581,1.224 10.076,0.915 H 94.1 l 9.428,0.854 21.005,1.892 z"
   clip-path="url(#SVGID_2_)"
   id="path16"
   inkscape:connector-curvature="0" />
		<path
   style="fill:#543e36"
   d="m 127.023,26.968 c -2.046,4.637 -4.709,8.945 -7.855,12.852 -0.185,0.227 -0.37,0.453 -0.565,0.679 -6.446,7.762 -14.897,13.798 -24.562,17.324 -2.54,0.936 -5.161,1.696 -7.855,2.262 -1.799,0.38 -3.629,0.679 -5.49,0.895 -2.139,0.236 -4.318,0.36 -6.528,0.36 -2.529,0 -5.007,-0.165 -7.443,-0.483 -2.386,-0.298 -4.72,-0.74 -7.002,-1.336 -1.306,-0.329 -2.581,-0.709 -3.846,-1.131 -1.244,-0.411 -2.457,-0.864 -3.66,-1.357 v -4.246 c 0,-23.102 18.723,-41.834 41.825,-41.855 h 0.041 c 3.188,0 6.292,0.359 9.273,1.028 2.725,0.617 5.347,1.501 7.835,2.622 3.393,1.522 6.549,3.475 9.387,5.809 2.384,1.95 4.554,4.151 6.445,6.577 z"
   clip-path="url(#SVGID_2_)"
   id="path18"
   inkscape:connector-curvature="0" />
		<path
   style="fill:#543e36"
   d="m 135.938,52.784 v 8.235 c -7.136,-5.521 -13.047,-12.502 -17.314,-20.48 -0.01,-0.01 -0.01,-0.031 -0.021,-0.041 -4.194,-7.834 -6.796,-16.625 -7.412,-25.92 3.393,1.522 6.549,3.475 9.387,5.809 2.385,1.954 4.555,4.154 6.446,6.58 5.583,7.116 8.914,16.071 8.914,25.817 z"
   clip-path="url(#SVGID_2_)"
   id="path20"
   inkscape:connector-curvature="0" />
		<path
   style="fill:#543e36"
   d="m 57.12,56.013 c -0.441,0.771 -0.843,1.563 -1.244,2.375 -0.153,0.318 -0.308,0.658 -0.462,0.987 -2.025,4.503 -3.044,8.924 -3.188,12.914 0,0.113 -0.011,0.236 -0.011,0.35 V 56.517 c 0,-0.576 0.021,-1.142 0.021,-1.697 1.625,0.422 3.249,0.833 4.884,1.193 z"
   clip-path="url(#SVGID_2_)"
   id="path22"
   inkscape:connector-curvature="0" />
		<path
   style="fill:#543e36"
   d="m 131.054,56.013 c 0.622,1.093 1.177,2.213 1.71,3.361 2.088,4.643 3.11,9.178 3.198,13.268 v -16.13 c 0,-0.567 -0.021,-1.134 -0.021,-1.688 -1.623,0.419 -3.244,0.824 -4.887,1.189 z"
   clip-path="url(#SVGID_2_)"
   id="path24"
   inkscape:connector-curvature="0" />
		<path
   style="fill:#1a1a1a"
   d="m 130.972,60.167 c 0,-0.175 -0.134,-0.329 -0.309,-0.35 -1.48,-0.226 -8.143,-1.142 -15.309,-1.142 -8.133,0 -18.63,2.55 -20.46,2.55 H 93.27 c -0.854,0 -3.588,-0.555 -7.084,-1.141 -4.02,-0.679 -9.037,-1.409 -13.376,-1.409 -5.243,0 -10.22,0.494 -13.088,0.843 -1.049,0.124 -1.82,0.236 -2.221,0.298 -0.175,0.021 -0.309,0.175 -0.309,0.35 l -0.082,4.369 c 0,0.154 0.093,0.288 0.236,0.35 l 0.493,0.175 c 0.73,0.278 0.669,13.448 4.596,16.738 2.334,1.943 4.411,3.053 13.16,3.053 5.069,0 8.256,-1.367 11.279,-5.449 2.18,-2.93 4.112,-9.86 4.112,-9.86 0.586,-2.858 2.714,-3.084 3.054,-3.105 0.021,0 0.041,0 0.041,0 0.071,0 2.468,0.041 3.095,3.105 0,0 1.933,6.93 4.112,9.86 3.022,4.082 6.21,5.449 11.278,5.449 8.75,0 10.826,-1.11 13.16,-3.053 3.928,-3.29 3.866,-16.46 4.596,-16.738 l 0.494,-0.175 c 0.143,-0.062 0.236,-0.195 0.236,-0.35 z M 86.875,75.753 c -1.285,3.043 -4.606,6.971 -9.284,7.207 -14.034,0.709 -14.682,-3.208 -15.587,-6.313 -0.915,-3.105 -1.151,-5.83 -0.792,-8.935 0.37,-3.105 1.152,-4.925 2.561,-5.84 0.606,-0.401 1.265,-0.761 2.951,-1.018 1.511,-0.226 3.845,-0.36 7.731,-0.36 2.251,0 4.359,0.175 6.24,0.483 4.997,0.802 8.369,2.499 8.369,4.174 0,1.143 -0.288,6.098 -2.189,10.602 z m 39.284,0.894 c -0.904,3.105 -1.552,7.022 -15.586,6.313 -4.678,-0.236 -7.999,-4.164 -9.284,-7.207 -1.902,-4.503 -2.189,-9.459 -2.189,-10.6 0,-2.303 6.395,-4.658 14.609,-4.658 8.215,0 9.53,0.617 10.683,1.378 1.408,0.915 2.189,2.735 2.56,5.84 0.36,3.105 0.123,5.83 -0.793,8.934 z"
   clip-path="url(#SVGID_2_)"
   id="path26"
   inkscape:connector-curvature="0" />
		<g
   clip-path="url(#SVGID_2_)"
   id="g32">
			<path
   style="fill:#543e36"
   d="m 94.123,90.65 -0.011,10.138 -0.01,3.547 v 2.786 l -0.011,9.253 v 0.01 l -0.01,-0.01 H 94.07 L 94.04,116.353 53.604,95.771 c -0.011,-0.062 -0.031,-0.123 -0.041,-0.185 -0.195,-0.822 -0.37,-1.655 -0.524,-2.498 -0.206,-1.111 -0.37,-2.242 -0.494,-3.383 -0.051,-0.36 -0.082,-0.72 -0.113,-1.08 -0.041,-0.38 -0.071,-0.751 -0.092,-1.131 -0.052,-0.689 -0.083,-1.388 -0.104,-2.087 -0.01,-0.453 -0.021,-0.905 -0.021,-1.357 V 71.764 c 0,0.175 0.011,0.35 0.011,0.524 0.082,2.971 0.555,6.241 1.47,9.582 0.71,2.57 1.594,4.945 2.622,7.063 v 0.01 c 2.694,5.604 6.303,9.407 9.623,10.024 0.206,0.031 0.422,0.051 0.628,0.072 1.285,0.144 2.632,0.226 4.02,0.226 5.243,0 9.901,-4.215 12.831,-5.922 0.021,-0.01 0.041,-0.021 0.062,-0.031 0.154,-0.093 0.309,-0.185 0.442,-0.278 0.041,-0.031 0.082,-0.051 0.123,-0.072 2.468,-1.409 6.025,-2.303 9.994,-2.313 h 0.082 z"
   id="path28"
   inkscape:connector-curvature="0" />
			<path
   style="fill:#543e36"
   d="m 135.947,71.764 -0.01,12.286 c 0,3.085 -0.288,6.107 -0.822,9.038 -0.217,1.172 -0.463,2.333 -0.751,3.485 l -9.49,13.705 -30.782,6.097 h -0.01 l -0.011,0.01 v -0.01 l -0.03,-25.727 h 0.082 c 3.969,0.01 7.536,0.905 10.004,2.313 0.041,0.021 0.071,0.041 0.113,0.072 0.144,0.093 0.298,0.185 0.452,0.278 0.01,0.01 0.03,0.021 0.051,0.031 2.941,1.707 7.588,5.925 12.832,5.925 1.388,0 2.734,-0.082 4.019,-0.226 0.216,-0.021 0.422,-0.041 0.638,-0.072 3.311,-0.617 6.93,-4.421 9.613,-10.024 v -0.01 c 1.027,-2.118 1.912,-4.493 2.621,-7.063 0.926,-3.393 1.409,-6.703 1.471,-9.716 0.01,-0.135 0.01,-0.259 0.01,-0.392 z"
   id="path30"
   inkscape:connector-curvature="0" />
		</g>
		<ellipse
   style="fill:#ecc19c"
   cx="94.073997"
   cy="103.955"
   rx="10.255"
   ry="3.1700001"
   clip-path="url(#SVGID_2_)"
   id="ellipse34" />
		<g
   clip-path="url(#SVGID_2_)"
   id="g40">
			<path
   style="fill:#435363"
   d="m 64.131,155.174 v 56.558 h -4.369 v -53.37 c 0.586,-0.473 1.172,-0.936 1.769,-1.378 0.853,-0.637 1.716,-1.234 2.6,-1.81 z"
   id="path36"
   inkscape:connector-curvature="0" />
			<polygon
   style="fill:#435363"
   points="124.021,200.741 124.021,211.732 128.39,211.732 128.39,200.741 128.39,158.372 124.021,155.185 "
   id="polygon38" />
		</g>
		<g
   clip-path="url(#SVGID_2_)"
   id="g54">
			<g
   id="g46">
				<polygon
   style="fill:#141720"
   points="94.074,166.049 106.036,151.713 82.113,151.713 "
   id="polygon42" />
				<path
   style="fill:#141720"
   d="m 94.074,225.437 h -7.073 l 5.11,-65.8 c 0.215,0.837 3.712,0.837 3.927,0 l 5.11,65.8 z"
   id="path44"
   inkscape:connector-curvature="0" />
			</g>
			<g
   id="g52">
				<path
   style="fill:#e7ecf2"
   d="m 94.07,151.638 -0.03,0.051 -0.011,0.021 -4.966,8.338 -4.637,7.772 -12.554,-17.447 c 0.401,-0.288 0.802,-0.596 1.183,-0.915 0.01,0.01 0.01,0.01 0.021,0.021 2.518,-2.005 4.76,-4.359 6.621,-6.991 l 14.343,9.13 z"
   id="path48"
   inkscape:connector-curvature="0" />
				<path
   style="fill:#e7ecf2"
   d="m 116.278,150.373 -12.554,17.447 -4.637,-7.772 -4.977,-8.338 -0.041,-0.072 14.436,-9.191 c 1.871,2.652 4.102,5.017 6.631,7.042 0.382,0.308 0.761,0.607 1.142,0.884 z"
   id="path50"
   inkscape:connector-curvature="0" />
			</g>
		</g>
	</g>
</g>
<g
   id="g60">
</g>
<g
   id="g62">
</g>
<g
   id="g64">
</g>
<g
   id="g66">
</g>
<g
   id="g68">
</g>
<g
   id="g70">
</g>
<g
   id="g72">
</g>
<g
   id="g74">
</g>
<g
   id="g76">
</g>
<g
   id="g78">
</g>
<g
   id="g80">
</g>
<g
   id="g82">
</g>
<g
   id="g84">
</g>
<g
   id="g86">
</g>
<g
   id="g88">
</g>
<path
   style="fill:#008080;stroke-width:0.79723728"
   d="M 42.553257,172.63318 C 31.017342,164.79833 20.3877,153.36963 13.601439,141.50494 -0.17603437,117.41724 -2.5054397,87.795802 7.3251037,61.693106 22.06554,22.553343 61.713122,-2.304067 103.13991,1.6211455 c 41.62804,3.9442814 74.84034,33.5695465 83.5373,74.5150135 2.00708,9.449382 2.1661,26.042811 0.34207,35.696201 -1.43503,7.59471 -5.05678,18.5649 -8.21855,24.89383 -6.30878,12.6283 -18.2724,26.57348 -29.59927,34.50186 l -5.86118,4.10261 -3.13031,-4.68769 c -3.91259,-5.85914 -11.45931,-12.90823 -17.33366,-16.19069 -5.72883,-3.20114 -14.02419,-11.41427 -16.01127,-15.85257 l -1.53775,-3.43468 4.04777,-2.33698 c 10.13693,-5.85251 20.32208,-18.75902 24.92046,-31.57892 l 2.43067,-6.776514 V 70.156879 c 0,-23.338939 -0.0741,-24.530005 -1.84298,-29.649607 C 128.7885,22.86825 113.5699,11.8001 95.269853,11.697345 87.122989,11.6516 80.783654,13.205421 74.473149,16.794781 65.362605,21.976779 58.324126,30.473077 54.879366,40.446855 c -1.791351,5.186584 -1.863088,6.315204 -1.863088,29.311406 0,20.977728 0.180604,24.504993 1.469528,28.700541 4.340305,14.128028 14.76629,27.934018 26.035158,34.475508 1.973162,1.1454 3.702282,2.16332 3.842492,2.26203 0.14021,0.0987 -0.527229,1.71264 -1.483204,3.5865 -2.57801,5.05333 -9.192861,11.62519 -15.278924,15.17964 -6.802416,3.97282 -14.04454,10.65408 -18.049665,16.6518 l -3.111157,4.65899 z"
   id="path3800"
   inkscape:connector-curvature="0" /><path
   style="opacity:1;vector-effect:none;fill:#008080;fill-opacity:1;stroke-width:0.63558728;stroke-linecap:butt;stroke-linejoin:miter;stroke-miterlimit:4;stroke-dasharray:none;stroke-dashoffset:0;stroke-opacity:1"
   d=""
   id="path3802"
   inkscape:connector-curvature="0" /><path
   style="opacity:1;vector-effect:none;fill:#008080;fill-opacity:1;stroke-width:0.63558728;stroke-linecap:butt;stroke-linejoin:miter;stroke-miterlimit:4;stroke-dasharray:none;stroke-dashoffset:0;stroke-opacity:1"
   d="M 41.057719,171.22052 C 34.001391,166.36184 22.549595,154.45666 17.203292,146.42166 3.6375968,126.03368 -1.3657772,100.16845 3.6072545,76.136159 10.449862,43.069102 34.395919,16.386601 66.562356,5.9868384 86.816978,-0.56170412 109.58368,0.40430726 130.27698,8.690307 c 28.62485,11.461945 50.3305,37.95807 56.38411,68.82818 1.30852,6.672686 1.28835,28.411493 -0.032,34.493353 -4.09432,18.85949 -10.46821,31.48451 -23.09234,45.7399 -4.54244,5.12937 -18.4103,16.84322 -19.94047,16.84322 -0.30088,0 -1.22744,-1.16596 -2.05902,-2.59102 -2.62965,-4.50639 -11.69064,-13.27506 -18.33411,-17.74263 -3.52435,-2.37004 -7.89825,-5.84998 -9.71976,-7.73319 -3.66805,-3.79231 -7.45086,-9.13542 -7.45086,-10.52416 0,-0.49409 1.91179,-2.04183 4.24842,-3.43943 5.55868,-3.3248 14.66565,-12.97635 18.74046,-19.86112 1.78224,-3.01125 4.3617,-8.42351 5.73216,-12.02724 l 2.49172,-6.552242 -0.28598,-24.938631 C 136.68416,45.189567 136.60203,44.065813 134.78704,39.463245 127.11444,20.006628 108.62391,8.940929 88.692646,11.877959 71.537092,14.405967 56.584461,28.598974 53.427009,45.35203 c -1.014651,5.383615 -1.057564,42.765409 -0.05611,48.879366 0.896395,5.472579 3.708506,12.646334 7.335042,18.711844 3.701873,6.19152 13.557379,16.51212 18.712405,19.59548 2.360362,1.41179 4.291566,2.95098 4.291566,3.42041 0,1.70159 -4.622115,8.02435 -8.445134,11.55241 -2.151625,1.98562 -6.423341,5.27209 -9.492704,7.3033 -5.894399,3.90069 -15.027512,12.8374 -17.566897,17.1891 -0.831579,1.42506 -1.703677,2.57284 -1.937998,2.55063 -0.23432,-0.0222 -2.578578,-1.52254 -5.20946,-3.33405 z"
   id="path3804"
   inkscape:connector-curvature="0" /></svg>